<svg id="Сгруппировать_182" data-name="Сгруппировать 182" xmlns="http://www.w3.org/2000/svg" width="23.587" height="17.297" viewBox="0 0 23.587 17.297">
  <path id="Контур_90" data-name="Контур 90" d="M64.82-18.607l10.316-8.255a2.371,2.371,0,0,0-.881-.172H55.385a2.357,2.357,0,0,0-.883.175Z" transform="translate(-53.026 27.035)" fill="#ba6f2c"/>
  <path id="Контур_91" data-name="Контур 91" d="M64.91-16.649a.785.785,0,0,1-.983,0L52.92-25.455a2.312,2.312,0,0,0-.295,1.116v12.58A2.363,2.363,0,0,0,54.984-9.4h18.87a2.364,2.364,0,0,0,2.359-2.359v-12.58a2.338,2.338,0,0,0-.295-1.118Z" transform="translate(-52.625 26.698)" fill="#ba6f2c"/>
</svg>
