<svg xmlns="http://www.w3.org/2000/svg" width="23.587" height="31.451" viewBox="0 0 23.587 31.451">
  <path id="Контур_93" data-name="Контур 93" d="M-21.266-77.68A11.794,11.794,0,0,0-33.06-65.886c0,8.308,10.484,18.831,10.863,19.277a1.311,1.311,0,0,0,1.848,0c.393-.446,10.876-10.969,10.876-19.277A11.793,11.793,0,0,0-21.266-77.68Zm0,15.725A3.931,3.931,0,0,1-25.2-65.886a3.931,3.931,0,0,1,3.931-3.931,3.931,3.931,0,0,1,3.931,3.931A3.931,3.931,0,0,1-21.266-61.955Z" transform="translate(33.06 77.68)" fill="#ba6f2c"/>
</svg>
