<svg xmlns="http://www.w3.org/2000/svg" xmlns:xlink="http://www.w3.org/1999/xlink" width="760.984" height="506.126" viewBox="0 0 760.984 506.126">
  <defs>
    <clipPath id="clip-path">
      <path id="Контур_62" data-name="Контур 62" d="M0,241.61H760.984V-264.516H0Z" transform="translate(0 264.516)" fill="none"/>
    </clipPath>
    <clipPath id="clip-path-2">
      <rect id="Прямоугольник_11" data-name="Прямоугольник 11" width="826.038" height="532.914" fill="none"/>
    </clipPath>
  </defs>
  <g id="Сгруппировать_82" data-name="Сгруппировать 82" clip-path="url(#clip-path)">
    <g id="Сгруппировать_81" data-name="Сгруппировать 81" transform="translate(-32.528 -24.874)" opacity="0.05">
      <g id="Сгруппировать_80" data-name="Сгруппировать 80">
        <g id="Сгруппировать_79" data-name="Сгруппировать 79" clip-path="url(#clip-path-2)">
          <g id="Сгруппировать_67" data-name="Сгруппировать 67" transform="translate(575.318 261.547)">
            <path id="Контур_50" data-name="Контур 50" d="M.357,1.071c8.23,2.618,15.711,5.61,23.567,11.97,7.855,5.985,11.222,13.093,17.207,17.582a5.582,5.582,0,0,0,3.366,1.5l17.209,2.618c-.748-6.733-6.735-.748-14.59-22.069-1.871-4.864-2.993-6.36-6.36-7.108C27.29,3.316,13.824,1.071-.018-1.173c-.373.748-.746,2.244.375,2.244" transform="translate(0.391 1.173)" fill="#ba6f2c"/>
          </g>
          <g id="Сгруппировать_68" data-name="Сгруппировать 68" transform="translate(513.151 219.129)">
            <path id="Контур_51" data-name="Контур 51" d="M80.384,27.341a108.392,108.392,0,0,0,16.76,16.231,149.938,149.938,0,0,1-16.76-16.231M-63.988-4.068C-71.642-12.777-79.559-21.487-88-29.933c8.182,8.578,16.1,17.156,24.017,25.865" transform="translate(88.005 29.933)" fill="#ba6f2c"/>
          </g>
          <g id="Сгруппировать_69" data-name="Сгруппировать 69" transform="translate(200.653 24.875)">
            <path id="Контур_52" data-name="Контур 52" d="M280.842,172.8a92.993,92.993,0,0,1-7.92,8.182c-4.881,3.829-8.974,6.731-12.009,9.766-7.786,6.729-11.876,15.309-16.363,24.017-4.091,8.58-10.558,18.212-18.344,24.283-7.918,6.333-19.134,6.729-25.469,6.729-1.452,1.452-5.937,16.76-29.56,12.275,6.729-2.641,10.82-10.822,10.162-18.344-9.766-3.3-23.9-13.294-30.236-21.87-3.735-4.944-5.932-7.883-6.452-9.934.092-.017,57.274,39.722,78.52,17.288,4.883-4.883,14.253-20.982,17.948-31.409,3.431-8.578,1.582-13.065-1.452-22.039-5.675-18.078-16.5-21.378-11.216-43.019,12.009,5.541,12.669,15.307,19,25.337,4.883,7.126,19.928,18.738,27.318,11.612,1.188-.66,1.188-.66.792-2.243-1.848-8.58-22.831-25.471-28.374-31.012-15.835-15.309-39.72-29.562-59.12-39.986-18.74-10.162-29.166-15.7-45.662-40.514C121.821,20.511,69.826-9.313,36.835-27.393,27.729-32.144,6.483-38.741-17.008-45.6,9.913-12.876,29.313,18.136,41.058,43.738h-.4c-3.695-4.355-7.522-8.578-11.612-12.8C21.394,22.227,13.476,13.517,5.03,5.072-15.556-16.175-37.2-37.157-59.765-57.349c-59.12-16.892-116.394-37.214-165.751-58.724-72.053-31.541-81.555-42.625-81.951-43.153v-.264a.485.485,0,0,1,.4-.132l122.334,38.93c13.725,4.355,27.318,8.578,41.043,12.933,13.327,4.091,26.524,8.314,39.852,12.4-40.25-32.993-123.126-92.773-123.916-93.3a.481.481,0,0,1-.132-.4c.132-.13.132-.13.264-.13,33.783,8.314,137.641,69.941,182.906,112.3,10.424,3.3,20.982,6.6,31.145,9.766C-6.054-64.739,1.468-62.5,8.989-60.12c55.558,17.156,97.656,41.833,125.238,73.373,7.126,7.918,13.593,16.5,19.926,24.811,6.2,8.18,12.4,16.5,19.266,24.281a108.48,108.48,0,0,0,16.76,16.231,52.121,52.121,0,0,0,6.071,4.883,184.812,184.812,0,0,0,17.156,10.028c28.506,16.5,34.839,27.318,56.878,49.356,4.487,4.883,10.822,12.8,13.857,18.344,3.035,5.279,0,7.522-3.3,11.612" transform="translate(307.467 189.183)" fill="#ba6f2c"/>
          </g>
          <g id="Сгруппировать_70" data-name="Сгруппировать 70" transform="translate(542.272 475.145)">
            <path id="Контур_53" data-name="Контур 53" d="M.084,0V.4c-.4-.4,0-.4,0-.4" transform="translate(0.092)" fill="#ba6f2c"/>
          </g>
          <g id="Сгруппировать_71" data-name="Сгруппировать 71" transform="translate(171.886 229.422)">
            <path id="Контур_54" data-name="Контур 54" d="M114.024,27.215q13.461,10.094,27.318,19.794c-1.45-.132-3.035-.132-4.487-.264C106.37,44.9,76.15,40.676,46.062,35.133,15.974,29.063-13.719,21.408-42.621,11.114-71.389.425-99.5-12.639-124.834-29.795c29.032,9.766,57.668,18.476,86.7,26.129,29.3,6.993,58.46,13.725,87.888,19.4q31.87,6.136,64.135,11.48Z" transform="translate(124.834 29.795)" fill="#ba6f2c"/>
          </g>
          <g id="Сгруппировать_72" data-name="Сгруппировать 72" transform="translate(75.022 188.969)">
            <path id="Контур_55" data-name="Контур 55" d="M113.017,8.287c2.375,1.98,4.619,3.959,7,5.939-10.69-.66-21.511-1.716-32.333-1.848-14.121-.924-28.24-1.45-42.231-1.582q-42.36-1.188-84.588.922c-28.242,1.716-56.352,3.959-84.592,9.37C-98,7.758-69.23,1.029-40.724-3.59-12.088-8.209,16.946-9.4,45.846-9c17.288.4,34.575,1.584,51.731,3.695C102.724-.687,107.87,3.8,113.017,8.287" transform="translate(123.731 9.072)" fill="#ba6f2c"/>
          </g>
          <g id="Сгруппировать_73" data-name="Сгруппировать 73" transform="translate(159.876 141.268)">
            <path id="Контур_56" data-name="Контур 56" d="M36.223,0c7,5.543,13.989,11.348,20.85,17.156-8.708-.528-17.552-.924-26.392-1.188-23.359-.528-46.322,2.9-70.339,6.2C-18.411,11.086,5.342,2.9,29.758.528,31.87.264,34.112.132,36.223,0" transform="translate(39.657)" fill="#ba6f2c"/>
          </g>
          <g id="Сгруппировать_74" data-name="Сгруппировать 74" transform="translate(274.556 140.873)">
            <path id="Контур_57" data-name="Контур 57" d="M76.1,30.553C32.683,13.266-10.338-1.251-54.547-9.565c-9.5-8.05-19-15.967-28.768-23.885a203.893,203.893,0,0,1,28.24,3.563A312.167,312.167,0,0,1,14.6-7.981C36.642,2.18,57.889,14.454,76.1,30.553" transform="translate(83.315 33.45)" fill="#ba6f2c"/>
          </g>
          <g id="Сгруппировать_75" data-name="Сгруппировать 75" transform="translate(54.958 312.311)">
            <path id="Контур_58" data-name="Контур 58" d="M229.5,38.736c-40.976,4.548-82.491,2.2-123.359-3.622a564.761,564.761,0,0,1-59.5-11.3c2.174,1.988,4.3,4.039,6.335,6.2C63.919,41.434,73.293,54.707,79.2,69.538c5.9,14.661,9.188,30.94,5.966,46.356-10.237-28.967-26.7-51.706-46.387-72.086-9.743-10.3-14-13.581-25.129-23.016A181.145,181.145,0,0,0-13.176,4.419,405.939,405.939,0,0,0-53.551-11.135c-.184-.061-.369-.107-.555-.168A318.175,318.175,0,0,0-92.661-20.97l-.186-.046c-7.244-1.357-14.737-2.53-22.615-3.561-39.789-5.027-90.246-6.861-135.8-4.518,39.789-10.853,81.413-14.352,122.881-13.057,20.812.247,41.517,3.128,62.174,6.3A429.09,429.09,0,0,1-5.283-19.968C32.625-5.94,70.842,5.221,110.045,14.964,149.232,24.4,188.928,32.355,229.5,38.736" transform="translate(251.261 42.408)" fill="#ba6f2c"/>
          </g>
          <g id="Сгруппировать_76" data-name="Сгруппировать 76" transform="translate(213.558 333.748)">
            <path id="Контур_59" data-name="Контур 59" d="M18.405,4.615C7.305,1.3-5.413-1.937-20.15-5.052A318.174,318.174,0,0,1,18.405,4.615" transform="translate(20.15 5.052)" fill="#ba6f2c"/>
          </g>
          <g id="Сгруппировать_77" data-name="Сгруппировать 77" transform="translate(32.528 29.331)">
            <path id="Контур_60" data-name="Контур 60" d="M271.077,167.461c-28.108-3.827-55.69-12.933-81.555-25.205-25.733-12.537-50.148-27.45-73.637-43.681-2.376-1.582-4.751-3.3-7.127-5.015Q94.9,83.861,81.441,73.765h-.132C49.769,50.144,19.416,25.069-10.54-.4c-2.375-1.98-4.619-3.959-6.994-5.939-5.147-4.485-10.294-8.974-15.441-13.591C-46.172-31.413-59.368-42.9-72.7-54.244c-6.861-5.805-13.855-11.612-20.85-17.156-17.42-14.251-35.235-27.976-53.711-40.777-22.7-15.705-46.188-30.88-70.865-43.417-24.811-12.273-50.543-23.755-78.652-27.45,28.506-1.978,56.878,6.335,83.667,15.835a458.659,458.659,0,0,1,76.936,38.14c24.677,14.383,47.64,31.407,70.471,48.43,3.695,2.9,7.39,5.807,10.952,8.842,9.766,7.92,19.268,15.837,28.77,23.887C-17.4-40.651-8.956-33.391-.38-26.266c5.413,4.619,10.69,9.238,16.1,13.855C21.529-7.4,27.468-2.381,33.405,2.766c10.028,8.578,20.06,17.156,30.22,25.6,21.114,18.212,42.493,35.763,64.135,53.183.132.132.4.264.528.4,5.543,4.355,10.954,8.578,16.5,12.8,0,.132.132,0,.132,0,38.666,29.692,79.181,56.614,126.16,72.713" transform="translate(296.776 183.337)" fill="#ba6f2c"/>
          </g>
          <g id="Сгруппировать_78" data-name="Сгруппировать 78" transform="translate(533.094 399.213)">
            <path id="Контур_61" data-name="Контур 61" d="M54.969,58.443a62.049,62.049,0,0,1-12.345-4.523C22.636,42.665,3.155,29.127-15.3,16.415-23.611,10.793-37.677.663-37.679-1.57s9.341-7.317,13.74-10.128C-4.869-23.92,13.656-34.2,32.723-47.038c2.321-1.468,5.134-3.423,6.234-4.033a48.719,48.719,0,0,1,7.087-2.2c5.256-1.1,10.88-1.956,16.5-2.688q16.868-1.834,34.1-3.3a269.394,269.394,0,0,0-34.344-4.4,122.857,122.857,0,0,0-17.724,0,55.507,55.507,0,0,0-9.535,1.59,58.128,58.128,0,0,0-8.922,4.033c-20.165,10.51-40.457,21.023-60.378,33-4.891,2.933-9.779,5.989-14.791,9.412l-3.911,2.811A31.518,31.518,0,0,0-57.6-8.536a14.738,14.738,0,0,0-.978,1.466,9.123,9.123,0,0,0-1.343,2.933A11,11,0,0,0-60.046-.1a4.663,4.663,0,0,0,.61,2.078,8.889,8.889,0,0,0,1.1,2.2,19.05,19.05,0,0,0,2.69,3.056,46.556,46.556,0,0,0,3.909,3.423c9.779,7.455,19.314,13.444,29.091,19.677C-11.23,37.609.538,44.322,12.439,50.772,23.8,56.927,35.207,64.487,48.053,66.817a50.114,50.114,0,0,0,5.325.792A65.047,65.047,0,0,0,68.78,67a34.44,34.44,0,0,0,14.178-5.746,30.351,30.351,0,0,0,9.535-11.366A30.613,30.613,0,0,1,68.167,60.4a53.849,53.849,0,0,1-13.2-1.956" transform="translate(60.18 63.983)" fill="#ba6f2c"/>
          </g>
        </g>
      </g>
    </g>
  </g>
</svg>
