<svg id="Сгруппировать_221" data-name="Сгруппировать 221" xmlns="http://www.w3.org/2000/svg" width="430.735" height="285.651" viewBox="0 0 430.735 285.651">
  <g id="Сгруппировать_222" data-name="Сгруппировать 222" transform="translate(0 0)">
    <g id="Liger_Logo" data-name="Liger Logo" transform="translate(0)">
      <path id="Контур_10" data-name="Контур 10" d="M51.116,0h1.667c2.786.916,13.145,7.05,16.958,9.041,7.506,4.886,24.384,15.852,29.53,19.888.867.69,12.226,9.267,16.2,12.971,6.493,6.16,12.119,10.927,17.558,17.021,2.04.558,5.519.757,8.186,1.354,3.52.584,20.1,4.9,22.691,6.041,3.146.9,18.385,7.382,20.758,8.577,2.306,1.168,11.332,5.364,15.745,7.993,4.706,2.8,12.172,9.745,18.012,14.472a140.317,140.317,0,0,1,18.025,22c.36.305,7.826,9.214,11.812,13.263a72.945,72.945,0,0,0,7.573,6.028c.973.664,11.719,7.461,12.865,8.139A85.94,85.94,0,0,1,282.334,158.7c2.933,3.08,5.639,6.2,8.626,9.28,3.12,3.24,6.853,6.638,9.119,10.011,1.12,1.66,2.506,3.2.72,5.563a32.569,32.569,0,0,1-5.146,5.284c-1.293.983-2.786,1.633-3.933,2.4-.84.571-2.053,1.739-3.186,2.722a17.628,17.628,0,0,0-3.786,4.514c-1.986,2.961-3.293,7.714-4.386,9.944s-6.106,8.112-7.719,9.2a21.923,21.923,0,0,1-10.852,3.7c-.573.093-3.906.04-5.053.212-4.106,4.2-6.093,10.515-11.959,12.971-1.16.106-3.48-.12-4.839-.159-.667-.146-.867-.743-.92-1.5a23.4,23.4,0,0,0,4.853-5.882c1.28-2.854,1.12-5.789,1.986-8.935-1.693-.73-9.292-4.368-10.012-4.939a13.6,13.6,0,0,1-4.4-7.979c3.973,1.819,11,6.519,15.665,8.178a29.548,29.548,0,0,0,12.759,2.1,20.968,20.968,0,0,0,5.919-1.885,19.522,19.522,0,0,0,5.026-4.474c.88-1.275,4.12-8.484,4.546-9.347,1.373-2.762,3.706-4.341,3.8-7.687.173-7.568-3.08-13.011-6.066-17.923-.907-2.987-.88-5.019-1.333-7.594-.267-1.553-.693-3.638,1.333-4.315a3.313,3.313,0,0,1,1.813.9c1.987,3,4.24,6.824,6.359,10.555,2.986,5.2,10.079,8.67,10.812,8.829,1.6.345,4.373.385,5.253-1.248.347-2.854-.987-3.651-2.586-5.178-2.213-2.111-5.04-4.607-7.119-6.638-3.933-3.8-7.466-7.568-11.972-10.542-4.413-4.01-10.666-7.594-15.372-11.139-5.159-2.921-19.745-11.259-21.718-12.825-1.4-1.115-6.973-7.554-8.173-9.041-2.626-3.239-5.279-6.837-7.679-9.944-6.866-8.842-16.585-13.423-22.318-17.817-5.8-4.448-17.958-12.971-31.624-18.468-1.547-.929-17.292-5.895-22.145-6.174,1.906,2.735,9.639,14.272,13.225,19.357,4.666,6.625,13.119,25.863,12.252,27.164-2.68-2.257-8.119-10.21-8.946-11.152-2.04-2.775-23.8-29.952-32.224-38.887a52.805,52.805,0,0,0-6.386-2.1c-4.64-1.646-16.412-3.8-28.317-8.3-5.866-2.23-20.238-6.957-22.251-7.674-5.013-1.872-18.358-6.174-25.891-9.055-5.24-1.646-14.252-4.939-18.625-6.625-3.653-1.514-10.159-3.8-12.119-4.66-1.387-.637-11.212-4.368-13.172-5.284-2.893-1.328-6.839-2.536-8.319-5.736,2.893-.146,5.693,1.195,14.839,3.439.493.133,7.959,2.363,10.746,3.2.72.04,8.879,2.708,12.119,3.771,3.92,1.022,20.2,6.16,31.944,9.041,6.093,1.46,13.812,3.678,14.385,3.771.667.186,5.426,1.421,5.906,1.514.453.066,8,2.23,8.479,2.244.853.053,5.613,1.434,6.053,1.514s7.759,2.151,8.319,2.257a26.659,26.659,0,0,0,2.84.611,21.754,21.754,0,0,0-3.293-3.505c-1.707-1.633-13.265-13.184-24.3-21.508-10.439-7.9-19.625-15.268-20.345-15.839-.813-.624-3.146-2.3-3.493-2.549-.627-.491-2.786-2.111-3.186-2.416-.853-.637-2.826-2.31-3.026-2.416a7.419,7.419,0,0,1-2.16-2.284C51.583,1.022,51.2.305,51.116,0" transform="translate(129.078 15.992)" fill="#fff"/>
      <path id="Контур_11" data-name="Контур 11" d="M52.535,7.992c-1.693-.119-3.36-.266-5.013-.425A285.839,285.839,0,0,0,8.312,6.518c-3,.133-11.346-.226-12.572-.757C-2.673,4.049.326,3.637,3.006,3.053A238.617,238.617,0,0,1,32.416-.186c4.973,0,8.546-.345,12.332-.465,1.84,1.872,3.626,3.784,5.359,5.815.813.956,1.613,1.9,2.426,2.828" transform="translate(88.152 70.961)" fill="#fff"/>
      <path id="Контур_12" data-name="Контур 12" d="M82.736,32.742A248.685,248.685,0,0,0,52.752,19.173C45.686,16.611,17.182,8.021,4.3,6.666,3.8,6.613,3.3,6.574,2.8,6.52c-1.52-1.66-3.24-3.173-4.853-4.687C-3.629.387-5.176-1.14-6.709-2.667-2.056-2.282,3.61-1.738,5.9-1.273,16.915.931,33.087,5.219,38.62,7.29s15.012,6.426,18.972,8.417,16.985,8.829,21.691,12.52c1.706,1.182,4.333,2.708,3.453,4.514" transform="translate(152.576 73.521)" fill="#fff"/>
      <path id="Контур_13" data-name="Контур 13" d="M111.083,10.668c-7.413-.651-15.012-1.261-17.4-1.314-25.131-.5-50.782.212-73.74,2.071-2.573.212-13.212,1.806-15.732,2.257-4.52.81-8.586,2.337-13.185,2.562-.253-1.991.893-1.978,1.667-2.257,4.066-1.553,9.2-2.735,13.172-3.93C11.24,8.451,15.986,6.818,21.012,5.69,29.3,3.844,37.237,2.583,46.156,1.322,49.063.91,52.142.286,54.929.087c7.119-.5,14.452-.956,21.5-.956,7.173,0,14.465.531,21.491.956.6.04,1.707.173,3.133.358.16.2.333.385.507.571,3.146,3.518,6.279,6.492,9.519,9.652" transform="translate(48.347 88.363)" fill="#fff"/>
      <path id="Контур_14" data-name="Контур 14" d="M31.693,10.779C29.787,11.111,21.081,10.1,17.6,9.73,14.162,9.345,10.789,8.6,7.309,8.216c-.147-.013-.32-.027-.533-.053C4.656,6.172.99,2.667-2.57-.878.016-.413,2.07,0,2.923.224c4.4,1.208,9,2.31,13.012,3.771,2.853,1.036,5.653,1.991,8.346,3.027,2.626,1,5.506,2.124,7.413,3.757" transform="translate(168.337 92.32)" fill="#fff"/>
      <path id="Контур_15" data-name="Контур 15" d="M282.022,173.091c-1.386,2.323-13.212-1.009-16.812-2.111-2.986-.916-6.026-2.27-9.092-3.306-5.56-1.9-10.612-4.209-16.038-6.187-2.373-.863-9.586-4.421-11.052-5.125-1.346-.637-9.519-4.9-12.279-6.333-.453-.239-1.16-.6-2.026-1.049-4.226-2.191-12.265-6.4-14.465-7.661-3.32-1.885-6.506-3.691-9.639-5.443-7.506-4.209-14.652-8.152-22.158-12.361a356.541,356.541,0,0,1-30.437-19.45c-4.72-3.293-9.719-6.784-14.4-10.542a79.367,79.367,0,0,1-6.8-5.722c-.973-.982-1.946-1.938-2.906-2.868-3.24-3.173-6.373-6.134-9.519-9.652-.173-.186-.333-.385-.507-.571-2.92-3.266-5.813-6.506-8.706-9.851-.813-.943-1.627-1.885-2.44-2.841C91.027,60,89.24,58.089,87.4,56.2c-2.24-2.284-4.56-4.527-6.919-6.837-3.133-3.067-6.239-6.718-9.492-9.8-5.2-4.952-9.266-10.05-15.239-14.352-4.773-3.439-10.039-7.3-15.252-10.528-3.013-1.859-16.385-9.931-23.9-13.542C5.955-3.966-4.764-8.931-21.123-12.569c-.547-.133-2.146-.584-1.653-1.368,2.186-.438,5.653.093,8.159.6,1.547.332,8.852,2.124,12.292,3.266A219.593,219.593,0,0,1,22.34.23C30.726,4.651,39.4,9.258,47.471,14.25c5.466,3.386,10.852,6.638,15.758,10.4A381.143,381.143,0,0,1,95.173,51.637c1.706,1.633,3.44,3.386,5.186,5.111,1.533,1.54,3.08,3.067,4.653,4.514,1.613,1.5,3.333,3.027,4.853,4.687a22.878,22.878,0,0,1,1.653,1.952,114.335,114.335,0,0,0,8.746,9.44c3.56,3.545,7.226,7.05,9.346,9.041.68.651,1.213,1.142,1.507,1.421a346.548,346.548,0,0,0,28.557,22.809c5.2,3.465,26.8,16.888,32.09,20.459,8.119,5.47,27.877,15.812,33.77,18.813,2.853,1.46,5.786,2.974,8.786,4.381,5.839,2.722,11.692,5.47,17.865,8.139,5.106,2.2,9.759,4.395,15.452,6.32,2.066.717,4.306,1.673,6.506,2.257,2.613.7,5.333.7,7.879,2.111" transform="translate(45.506 14.099)" fill="#fff"/>
      <path id="Контур_16" data-name="Контур 16" d="M173.058,48.913h-.227c-8.239,0-16.972.093-24.078-.9-3.506-.491-7.173-.81-10.452-1.514-4.68-.982-10.172-2.323-14.679-3.611-1.773-.5-15.705-4.3-19.838-5.417-.773-.212-18.318-5.656-25.891-8.139-5-1.646-51.7-17.18-59.661-20.194C7.7,5.14-3.778,1.011-14.03-3.53c-.027-.332.133-.478.453-.451,1.8.425,4.653.173,7.439.6,1.96.305,4.586,1.514,7.106,2.27C7.061.692,13.594,2.259,19.74,4.157c8.772,2.708,32.717,9.652,35.13,10.369,5.253,1.407,16.572,4.249,18.025,4.7,3.6,1.1,15.145,4.116,16.505,4.527.707.2,21.051,6,21.651,6.16,2.386.69,5.546,1.553,8.626,2.27,3.013.69,7.653,1.593,11.359,2.111,5.146.717,11.079,1.248,16.812,1.514.36.013.733.013,1.107,0,3.133,1.753,6.333,3.558,9.639,5.443,2.2,1.275,10.252,5.47,14.465,7.661" transform="translate(87.163 114.165)" fill="#fff"/>
      <path id="Контур_17" data-name="Контур 17" d="M25.569,8.876c.493.9,2.133,4.474,2.946,5.377s3.253,3.107,4.373,5.072a7.821,7.821,0,0,1-3.773,1.208,11.3,11.3,0,0,1-7.279-2.4C19.623,16.377,13.664,8.7,11.851,7.575,11.064,7.017,5.878,4.2,5.184,3.8,3.878,2.915-.028,2.2-1.935.644a1.176,1.176,0,0,1,.16-1.367c3.853.119,6.2.637,9.692.9C8.784.246,13.41.7,14.864.937c.787.133,3.76.611,4.706.743,4.546.7,4.333,4.129,6,7.2" transform="translate(314.614 131.849)" fill="#fff"/>
      <path id="Контур_18" data-name="Контур 18" d="M250.575,23.151c-.76,1.235-2.6,1.421-4.24,1.806-2.44.571-17.238,2.31-21.358,2.562s-8.359.465-12.705.465c-2.786,0-5.586.013-8.372.027-3.76.027-7.506.027-11.172-.066-2.146-.053-4.266-.133-6.346-.266-2.546-.173-10.359-1.049-11.666-1.208-1.147-.146-9.119-1.221-11.812-1.66-.76-.133-4.04-.664-4.693-.757s-12.225-2.27-13.025-2.416c-1.093-.186-19.985-5.072-28.3-6.612-9.572-1.792-18.758-4.713-28.171-6.8C79.045,6.1,69.206,4.6,59.033,2.958,48.541,1.272,37.782,1.139,26.143,1.7c-4.173.186-14.945.491-21.318,2.31-6.519,1.872-12,3.784-18.318,5.882-2.2.558-4.653,2.2-6.826,1.806.173-1.248,1.547-1.288,2.44-1.806A131.478,131.478,0,0,1-2.441,3C2.372,1.338,4.452.9,12.251-.388c7.6-1.261,23.9-1.367,27.237-1.474,4.426-.146,22.011.385,29.171,1.195A194.719,194.719,0,0,1,89.617,2.958c10.852,2.31,21.865,5.576,32.7,8.444,6.439,1.686,12.425,3.691,19.531,5.125,6.039,1.195,11.986,2.562,17.865,3.9,2.253.518,4.466.73,6.973,1.208.72.146,9.852,1.646,11.212,1.779,1,.106,6.466.677,9.586.969.507.053.96.093,1.307.119,3.853.319,7.813.531,11.826.664A334.83,334.83,0,0,0,243.149,23.6c1.733-.173,3.373-.478,5.906-.757.347-.027,1.347-.491,1.52.305" transform="translate(20.319 164.646)" fill="#fff"/>
      <path id="Контур_19" data-name="Контур 19" d="M55.2,16.71c-4.013-.119-7.973-.345-11.826-.664-.36-.027-.8-.066-1.307-.119a89.082,89.082,0,0,0-19.6-9.519C19.175,5.319,10.4,3.7,9.763,3.54,5.643,2.451-.956,2.384-4.476.818c1.24-1.593,6.413-1.952,6.653-1.952C10.923-2.063,22.948.154,23.375.22c13.6,2.337,26.2,11.949,29.371,14.5.893.7,1.693,1.367,2.453,1.991" transform="translate(165.745 173.104)" fill="#fff"/>
      <path id="Контур_20" data-name="Контур 20" d="M38.932,52.7c-1.28.465-1.773-1.089-2.12-1.806-1.227-2.536-6.946-14.91-8.653-18.149A150.193,150.193,0,0,0,13.095,10.032,102.234,102.234,0,0,0-3.157-4.293C.5-4.2,4.242-4.2,8-4.227c2.586,2.363,5,4.859,8.826,8.856C19.907,7.855,24.8,16.166,27.84,22.393c3.186,6.519,4.466,10.966,6.279,15.839,1.613,4.355,4.946,13.688,4.813,14.472" transform="translate(216.21 196.882)" fill="#fff"/>
      <path id="Контур_21" data-name="Контур 21" d="M91.548,6.92c-.573.465-7.773-2.111-8.333-2.111-2.946-.9-12.132-2.35-9.412-1.952S59.112,1.569,51.126,4.5c-2.573.863-7.8,2.841-9.679,3.771-3.88,1.447-15.532,8.112-17.585,9.785-3.12,1.965-13.252,8.258-18.678,13.476A9.132,9.132,0,0,0,3.73,33.752c-1.133,5.165,3.226,7.3,6.653,10.077a109.924,109.924,0,0,0,11.066,7.01c2.946,1.553,14.532,8.019,17.718,9.665,2.466,1.275,4.773,2.642,7.266,3.983.533.292,2.373,1.3,2.733,1.5.973.571,5.506,2.284,6.653,2.722A17.462,17.462,0,0,0,66.271,68.4a39.567,39.567,0,0,0,6.653-3c.827-.465,5.386-3.8,7.146-6.24a29.624,29.624,0,0,0,2.586-4.434c1.707.478,2.346,4.74,2.08,7.2a23.693,23.693,0,0,1-3.666,9.055,16.133,16.133,0,0,1-7.533,5.868,39.669,39.669,0,0,1-4.253.6,25.048,25.048,0,0,1-9.226-.6,150.312,150.312,0,0,1-16.652-6.625c-3.973-2-17.358-8.816-24.158-12.971C15.782,55.154,5.9,49.286,1.011,43.683c-2.32-2.629-4.68-4.673-6.973-7.833-.667-1.394-2.32-3.545-.907-6.028S5.343,21.511,7.97,20.183c2.733-1.434,8.159-4.62,12.052-6.612C28.595,9.164,41.82,2.764,46.739,1.636A76.314,76.314,0,0,1,59.3-.475c2.56-.2,6.453,0,9.546,0A42.789,42.789,0,0,1,86.709,3.149c1.573.651,4.56,1.779,4.84,3.771" transform="translate(286.996 208.008)" fill="#fff"/>
    </g>
  </g>
</svg>
