<svg xmlns="http://www.w3.org/2000/svg" width="63.629" height="89.247" viewBox="0 0 63.629 89.247">
  <g id="Сгруппировать_191" data-name="Сгруппировать 191" transform="translate(-1536.407 -2530.406)">
    <path id="Контур_102" data-name="Контур 102" d="M1578.053,2569.2l21.858,7.879a15.4,15.4,0,0,1-.03,2.542c-.161,1,.8,2.571-.847,2.893-1.935.379-1.21-1.317-1.469-2.294-.359-1.347-1.268-1.944-2.742-2.363-3.766-1.068-7.6-2.05-11.087-3.936-2.05-1.108-3.654-.794-5.583.736a15.7,15.7,0,0,1-10.181,3.4c-3.618-.022-6.393-1.642-8.954-3.558a5.293,5.293,0,0,0-5.186-.856c-4.135,1.154-7.889,3.342-12.093,4.353-1.593.382-2.117,1.8-2.081,3.563.112,5.591.045,11.184.037,16.778a12.076,12.076,0,0,1-.134,2.266c-.041.215-.587.438-.916.462s-.926-.125-.978-.314c-.457-1.684-1.551-3.637-1.081-5.055,1.814-5.468.268-10.984.776-16.439.188-2.01.041-2.109,2.3-2.989,4.65-1.814,9.335-3.54,14.023-5.254.51-.187,1.192.092,1.7-.1,4.671-1.8,5.246-4.463,1.966-8.382a9.222,9.222,0,0,1-1.415-2.871c-.95-2.7-1.792-5.43-2.714-8.135-.171-.5-.781-.972-.736-1.409.339-3.307.4-6.721,1.337-9.862a18.147,18.147,0,0,1,4.04-6.374c.993-1.119,2.772-1.561,4.223-2.252,3.472-1.65,9.668-1.611,12.93-.022,4.26,2.074,7.131,5.115,7.573,10.089a17.71,17.71,0,0,0,1.116,3.575c.571,1.8,2.129,3.3.18,5.543-.974,1.117.295,3.714-1.742,5.039-.475.309-.543,1.281-.746,1.965-.461,1.547-.4,3.687-1.427,4.541C1577.41,2564.491,1577.807,2566.933,1578.053,2569.2Zm-9.725-36.419c-5.693-.379-8.746,3.071-11.087,6.873-.817,1.325-2.33,3.806-.242,5.93.327.333.632,2.026-.843,2.225-1.724.232-1.684.927-.961,2.24,1.567,2.846,3.02,5.757,3.042,9.133a1.775,1.775,0,0,0,.251,1.041,16.747,16.747,0,0,0,9.159,5.75c2.117.535,3.786-.672,5.482-1.323,3.665-1.408,6.1-4.06,5.919-8.333a4.7,4.7,0,0,1,1.325-3.528c1.445-1.687,1.567-4.461.26-4.8-2.615-.678-1.879-2.341-1.162-3.32,2.047-2.794.437-5.1-.932-7.073A10.919,10.919,0,0,0,1568.328,2532.783Zm8.107,39.008c-.736-.82-1.852-1.485-1.907-2.229-.169-2.278-.575-2.586-2.694-1.36-1.3.753-3.281.547-4.93.421-1.571-.12-3.815-1.494-4.5-.888-1.148,1.014-1.293,3.164-1.861,4.84,3.1,1.882,6.228,3.908,10.077,3A9.207,9.207,0,0,0,1576.434,2571.791Z" transform="translate(0.019)" fill="#fff"/>
    <path id="Контур_103" data-name="Контур 103" d="M1599.59,2572.747v6.767c-1.756.848-3.553-2.425-5.425.3-1,1.453-3.447,1.83-5.022,2.989a25.2,25.2,0,0,1-8.226,3.95c-3.756,1.076-7.34,2.747-11.09,3.966-2.458.8-4.95.439-7.476,1.461-3.478,1.407-7.67,1.184-11.57,1.37-4.04.195-8.1.085-12.148-.009-.491-.011-.968-.75-1.45-1.15.513-.372,1.007-1.026,1.544-1.062,1.92-.13,3.86.05,5.781-.071,5.245-.329,10.637-.1,15.687-1.294,7.282-1.724,14.96-2.492,21.491-6.717,4.541-.02,7.167-4.013,11.083-5.385a1.58,1.58,0,0,0,.655-2.74c-1.26-1.444-1.127-2.4,1.073-2.374C1596.039,2572.763,1597.582,2572.747,1599.59,2572.747Z" transform="translate(0.222 12.14)" fill="#fff"/>
    <path id="Контур_104" data-name="Контур 104" d="M1587.373,2579.334c.993,1.136,1.225,1.278,1.225,1.419.017,8.081.016,16.16.016,24.671-2.007.055-4.048.136-6.089.163-2.09.03-4.181.006-6.649.006,0-5.718-.027-11.249.04-16.778a2.436,2.436,0,0,1,.885-1.714C1580.342,2584.609,1584.727,2583.436,1587.373,2579.334Zm-1.076,5.006a16.079,16.079,0,0,1-1.343,1.167c-1.984,1.233-4.327,2.115-5.886,3.749-2,2.1-.521,5.087-.852,7.663a14.6,14.6,0,0,0,.01,3.451,4.066,4.066,0,0,0,.792,1.957c1.469,1.874,3.624,1.045,5.337.823,1.525-.2,2.018-1.858,1.979-3.576C1586.225,2594.789,1586.3,2590,1586.3,2584.34Z" transform="translate(11.316 14.03)" fill="#fff"/>
    <path id="Контур_105" data-name="Контур 105" d="M1562.484,2603.375v-12.43c3.864-1.25,7.754-2.58,11.694-3.741,1.17-.344,2.175-.1,2.108,1.7-.143,3.852-.05,7.715-.041,11.574a2.614,2.614,0,0,1-2.754,2.859C1569.869,2603.461,1566.24,2603.375,1562.484,2603.375Zm10.284-12.854-6.974,1.76c.112,2.911-.1,5.873.1,8.572h6.871v-10.333Z" transform="translate(7.478 16.249)" fill="#fff"/>
    <path id="Контур_106" data-name="Контур 106" d="M1562.273,2602.294h-12.327V2592.22l12.327-1.733Zm-10.019-8c-.268,2.181-.852,4.421,1.192,5.274a7.209,7.209,0,0,0,5.273.019c2.25-1.062,1.55-3.348,1.157-5.293Z" transform="translate(3.882 17.228)" fill="#fff"/>
    <path id="Контур_107" data-name="Контур 107" d="M1537.657,2601.834c-.7-1.717.389-3.527-1.175-5.044-.4-.382.871-2.476,1.4-3.84,3.129-.848,6.692.908,9.841-1.207a4.925,4.925,0,0,1,2.307,2.451,56.062,56.062,0,0,1,.115,7.639Zm10.043-6.547H1540v4.406C1546.361,2599.733,1546.361,2599.733,1547.7,2595.287Z" transform="translate(0 17.587)" fill="#fff"/>
    <path id="Контур_108" data-name="Контур 108" d="M1549.4,2589.888c-1.2-1.748-2.208-2.538-2.24-3.365-.165-4.2-.1-8.418-.036-12.625.005-.389.568-.768.871-1.152.468.41,1.336.813,1.343,1.233C1549.436,2578.9,1549.4,2583.831,1549.4,2589.888Z" transform="translate(3.054 12.141)" fill="#fff"/>
    <path id="Контур_109" data-name="Контур 109" d="M1573.191,2579.732a44.234,44.234,0,0,0-.032-4.921c-.322-2.648,1.509-1.984,3.3-2.078.069,1.637.024,3.292.233,4.913C1577.031,2580.291,1575.187,2579.628,1573.191,2579.732Z" transform="translate(10.528 12.134)" fill="#fff"/>
  </g>
</svg>
