<svg xmlns="http://www.w3.org/2000/svg" width="83.179" height="87.008" viewBox="0 0 83.179 87.008">
  <g id="Сгруппировать_192" data-name="Сгруппировать 192" transform="translate(-1660.492 -2757.098)">
    <path id="Контур_110" data-name="Контур 110" d="M1729.079,2812.371c0,3.871.057,7.537-.027,11.2-.034,1.465.491,2.97-.8,4.372a10.956,10.956,0,0,1-5.174,3.118c-3.708,1.036-7.573,1.5-11.3,2.476-1.994.526-4.367,1.139-3.927,4.163-1.713,1.336-.828,3.945-2.832,5.343-1.272.888-2.483,1.418-3.627.789-7.146-3.929-14.846-6.643-22.171-10.186-3.106-1.5-4.314-3.207-4.143-6.507.166-3.187.465-6.451-1.078-9.5a1.915,1.915,0,0,1,.365-1.491,5.065,5.065,0,0,1,1.988.413c.332.129.809.533.8.8-.108,3.747,2.7,7.377,1.118,10.959-.756,1.71.083,2.068.752,2.508a20.14,20.14,0,0,0,4.388,2.1c5.638,1.978,11.011,4.55,16.44,7.011,1.276.579,2.862.471,4.218.667a7.227,7.227,0,0,0,.365-1.466c-.142-4.35,2.062-6.914,6.129-8,4.926-1.321,9.868-2.581,14.787-3.863.489-4.935,1.889-9.716,1.508-14.727-.059-.776,1.5-2.231,2.488-2.412a39.339,39.339,0,0,1,6.764-.115c0-1.091.392-2.457-.065-2.862-2.9-2.572-3.589-6.4-5.677-9.432a12.558,12.558,0,0,1-2.571-8.94c.217-1.715-.8-3.554-1.032-5.365a34.3,34.3,0,0,0-1.048-4.83c-2.35-8.478-10.917-16.719-20.074-17.866-.658-.083-1.2-.848-1.873-1.11-1.288-.5-3.166.941-3.979-1.046-.481-1.177,1.035-1.847,4.824-1.26a27.336,27.336,0,0,1,12.861,5.58,34.66,34.66,0,0,1,9.025,10.263,30.508,30.508,0,0,1,3.757,15.422c-.1,2.493-.426,5.1,2.237,6.688,1.222,4.687,4.818,8.114,6.635,12.49,1.125,2.712.144,4.465-2.743,4.593C1734.078,2812.453,1731.757,2812.371,1729.079,2812.371Z" transform="translate(4.083)" fill="#fff"/>
    <path id="Контур_111" data-name="Контур 111" d="M1679.245,2811.358c-1.2-2.084-1.985-4.423-2.607-4.38-4.024.278-3.124-2.448-3.048-4.552a20.66,20.66,0,0,0-4.153-13.524c-3.222-4.4-2.114-13.427,1.551-17.77,4.172-4.943,9.382-7.722,15.922-6.567,2.2.387,4.789.58,6.478,2.674,1.448,1.795,3.644,2.761,4.964,4.844,1.127,1.775,2.238,3.37,2.192,5.548-.039,1.819,2.189,3.64-.008,5.46.541,3.687-1.148,6.424-3.426,9.145-.945,1.129-1,3.09-1.226,4.7a29.486,29.486,0,0,0-.039,4.088c0,.779-.039,1.562.008,2.338.11,1.785-.7,3.34-2.408,3.2-2.634-.224-2.019,1.314-2.388,2.82-.388,1.577-1.921,2.231-3.662,1.988a12.659,12.659,0,0,0-1.752-.013Zm-3.472-12.9c5.09,0,9.734-.048,14.376.023,1.8.029,3.25-.673,3.267-2.384.026-2.842,1.527-4.776,2.874-7.049a15.743,15.743,0,0,0,1.521-12.5c-1.092-3.722-4.254-6.687-7.468-8.342a11.463,11.463,0,0,0-10.1-.43c-3.817,1.664-6.872,3.613-8.511,7.358-1.732,3.958-2.448,7.714.2,12C1673.951,2790.4,1676.766,2793.763,1675.773,2798.459Zm-.345,4.36a24.924,24.924,0,0,0,2.564.318c4.457.023,8.916.035,13.371-.037.327-.005.885-.695.9-1.078.013-.4-.5-1.161-.8-1.166-4.457-.076-8.917-.132-13.37.023C1677.326,2800.906,1676.6,2801.93,1675.427,2802.819Zm13.421,4.711-.2-.863c-2.453,0-4.905-.022-7.357.035-.238.006-.579.467-.666.776a1.651,1.651,0,0,0,.115,1.042,24.146,24.146,0,0,0,5,.416C1686.81,2808.847,1687.815,2808.026,1688.848,2807.53Z" transform="translate(2.136 2.186)" fill="#fff"/>
    <path id="Контур_112" data-name="Контур 112" d="M1699.675,2767.857c-1.5,1.182-2.227,3.347-4.58,2.989-.474-.073-1.174-.391-1.277-.742a1.692,1.692,0,0,1,.477-1.473c.844-.666,2.014-.966,2.75-1.712C1698.788,2765.155,1698.581,2767.958,1699.675,2767.857Z" transform="translate(10.096 2.801)" fill="#fff"/>
    <path id="Контур_113" data-name="Контур 113" d="M1679.389,2759.564a7.587,7.587,0,0,1,.04-1.744,1.044,1.044,0,0,1,.852-.571c.5.065,1.2.258,1.395.623a2.591,2.591,0,0,1,.035,1.7c-.3,1.166.987,3.225-.886,3.383C1678.053,2763.188,1679.924,2760.7,1679.389,2759.564Z" transform="translate(5.692 0.045)" fill="#fff"/>
    <path id="Контур_114" data-name="Контур 114" d="M1669.225,2759.962c1.456,0,2.8-.368,3.166.073a13.731,13.731,0,0,1,1.795,3.761c.069.177-.321.679-.6.808-.313.143-.949.19-1.088.008C1671.466,2763.258,1670.524,2761.837,1669.225,2759.962Z" transform="translate(2.648 0.825)" fill="#fff"/>
    <path id="Контур_115" data-name="Контур 115" d="M1687.53,2764.18c.813-1.289,1.564-2.621,2.476-3.831.25-.333.984-.3,1.5-.431.154.641.644,1.633.4,1.864C1690.718,2762.918,1690.555,2765.991,1687.53,2764.18Z" transform="translate(8.199 0.855)" fill="#fff"/>
    <path id="Контур_116" data-name="Контур 116" d="M1663.672,2766.274a31.171,31.171,0,0,1,3.525,2.358c.383.33.259,1.249.368,1.9a5.448,5.448,0,0,1-1.935-.09C1663.086,2769.3,1663.1,2769.261,1663.672,2766.274Z" transform="translate(0.87 2.783)" fill="#fff"/>
    <path id="Контур_117" data-name="Контур 117" d="M1699.67,2776.127a5.058,5.058,0,0,1,1.718.047,1.554,1.554,0,0,1,.867,1.119,1.445,1.445,0,0,1-.839,1.126,12.644,12.644,0,0,1-3.458,0c-.545-.084-1-.724-1.5-1.113a6.51,6.51,0,0,1,1.494-1.14A5.117,5.117,0,0,1,1699.67,2776.127Z" transform="translate(10.906 5.753)" fill="#fff"/>
    <path id="Контур_118" data-name="Контур 118" d="M1664.253,2778.481a13.65,13.65,0,0,1-3.147-.065c-.327-.1-.546-.886-.611-1.387a1.039,1.039,0,0,1,.566-.852,6.3,6.3,0,0,1,2.3-.009c1.065.249,3.106-1.05,2.828,1.4C1666.134,2778.071,1664.463,2778.39,1664.253,2778.481Z" transform="translate(0 5.745)" fill="#fff"/>
    <path id="Контур_119" data-name="Контур 119" d="M1681.757,2770.444c-.774,1.028-1.082,1.874-1.641,2.1a7.706,7.706,0,0,0-4.426,4.416,1.619,1.619,0,0,1-1.528.414c-.616-.413-1.006-.731-.526-2.033,1.1-2.985,3.623-3.975,5.824-5.472C1679.8,2769.638,1680.651,2770.147,1681.757,2770.444Z" transform="translate(3.921 3.855)" fill="#fff"/>
  </g>
</svg>
