<svg xmlns="http://www.w3.org/2000/svg" width="76.338" height="86.591" viewBox="0 0 76.338 86.591">
  <g id="Сгруппировать_190" data-name="Сгруппировать 190" transform="translate(-1399.489 -2868.249)">
    <path id="Контур_98" data-name="Контур 98" d="M1470.052,2921.414c-2.341-4.872-4.348-9.478-6.774-13.851a9.515,9.515,0,0,1-1.055-4.1c-.312-3.423-.3-6.961-1.237-10.218-.851-2.958-2.68-5.664-4.262-8.372-4.219-7.218-13.768-11.194-21.517-11.11a7.323,7.323,0,0,1,.092-2.621,2.055,2.055,0,0,1,1.929-.484c3.153,1.59,6.71,1.733,9.974,3.191,5.836,2.607,10.645,6.317,13.508,11.816,2.065,3.966,4.163,8.316,3.745,13.081a19.212,19.212,0,0,0,2.769,11.292q2.669,4.809,5.153,9.717c.409.808.937,2.165.58,2.63-.832,1.085-1.587,2.561-3.45,2.44s-3.746-.026-6.134-.026c0,3.727.018,7.426,0,11.125-.025,3.973-1.038,4.984-4.856,5.85-4.271.967-8.459,2.3-12.722,3.31a3.1,3.1,0,0,0-2.783,2.789c-.133.823-1.068,1.6-1.014,2.355.12,1.674-.233,3.365-1.719,3.727a7.553,7.553,0,0,1-5.325-.429c-4.049-1.983-7.88-4.648-12.588-5.015-1.715-2.568-5.452-1.934-7.157-4.516-3.746,1.016-1.881-3.252-3.744-4.056a10.411,10.411,0,0,1,.4-1.454c.235-.843.817-1.774.634-2.514-.5-2.018-1.341-3.949-2.018-5.924-.334-.978-.347-1.891,1.047-1.837.807.03,2.072-.53,2.147.964.177,3.444,1.828,6.7,1.172,10.257-.366,1.98.758,2.907,2.594,3.483,1.644.517,3.115,1.555,4.73,2.191a98.526,98.526,0,0,1,14.258,6.436,1.51,1.51,0,0,0,2.333-.457c.723-1,1.942-2.093,1.907-3.11-.173-5,4.027-5.595,6.949-6.015,3.911-.563,7.276-3.191,11.463-2.6,1.053.149,2.092-1.212,2.058-2.773-.069-3.2-.042-6.4-.015-9.593.029-3.595,1.453-5.177,5.094-5.563A37.166,37.166,0,0,1,1470.052,2921.414Z" transform="translate(2.752 0.594)" fill="#fff"/>
    <path id="Контур_99" data-name="Контур 99" d="M1416.443,2923.424a15.62,15.62,0,0,0-.047-3.5c-.443-1.771-2.115-2.154-3.705-1.014-2.606,1.867-2.926,1.872-5.047-.139-1.632-1.549-3.229-3.139-5.079-4.941.691-.9,1.376-1.7,1.955-2.573,1.323-1.992.762-3.133-1.639-3.438-2.6-.33-3.259-.945-3.365-3.26-.053-1.127-.016-2.257-.009-3.385.025-3.473.028-3.473,3.681-4.646,2.188-.7,2.428-1.19,1.516-3.259-.351-.8-.788-1.554-1.19-2.329-.14-.27-.462-.563-.419-.793.355-1.873,5.058-5.852,6.968-6.053,2.122-.223,2.641,1.808,3.973,2.688a4.9,4.9,0,0,1-.922,1.164,1.261,1.261,0,0,1-1.149.092,8.392,8.392,0,0,1-1.274-1.213l-4.458,4.462c.6,1.315,3.557,2.4,2.168,4.691-1.271,2.091-3.206,3.76-6.636,2.428,0,1.652.043,2.9-.01,4.138-.077,1.788.849,2.649,2.5,3.026,4.814,1.1,5.486,3.286,2.234,7.133a4.966,4.966,0,0,0-.366.866c.57.656,1.326,1.409,1.941,2.265.942,1.312,2.194,1.188,3.466.838,4.59-1.266,4.948-1.427,6.471,2.45,1.321,3.361,3.729,1.936,6.088,2.243.783-1.8-.772-4.985,2.215-5.549,2.281-.43,4.956-.684,6.156,1.851l4.066-4.462c-2.351-3.244-2.351-3.244-.335-7.637h3.67v-6.6c-.414-.053-.937-.108-1.457-.188-.881-.138-2.375-.064-2.53-.479-.577-1.56-1.333-3.483-.87-4.892.639-1.942,2.093-3.5-.275-5.212-.235-.171-.013-.974,0-1.483.642.032,1.463-.177,1.893.141,1.325.98,2.5,2.162,3.734,3.265a17.2,17.2,0,0,0-2.25,2.294c-1.642,2.547-1.148,3.619,1.759,4.112,3.5.594,3.614.706,3.679,4.08.025,1.316.05,2.635-.006,3.95-.1,2.316-.764,2.931-3.364,3.261-2.4.3-2.981,1.459-1.629,3.429a12.228,12.228,0,0,0,1.675,1.714l-7.305,7.008c-.144-.06-1.124-.423-2.065-.867-3.09-1.459-3.847-1.024-4.235,2.5-.059.538-.069,1.083-.113,1.822Z" transform="translate(0 4.031)" fill="#fff"/>
    <path id="Контур_100" data-name="Контур 100" d="M1425.346,2882.68h6.96c-.645,1.558-.922,2.975-1.707,4.005-5.137,6.74-7.631,15.136-13.484,21.405-.3.323-.966.306-2.013.6,0-1.709-.57-3.546.107-4.5,2.05-2.88-.045-6.482,2.048-9.338.523-.714.757-2.91-.69-3.471-3.535-1.37-3.265-4.528-2.4-6.682,1.1-2.757.714-5.366.928-8.044a18.541,18.541,0,0,1,.034-2.244c.356-1.71.424-3.734,1.427-4.966.64-.786,2.744-.345,4.183-.525,2.328-.289,4.778.743,7.045-.676.162-.1,1.678,1.193,1.575,1.559C1428.192,2873.947,1426.833,2878.027,1425.346,2882.68Zm-5.727,5.422c0,2.2.078,4.22-.021,6.236-.1,2.043-2.178,3.879-.652,6.107a53.184,53.184,0,0,0,8.517-15.71h-5.29c1.356-4.693,2.617-9.058,3.863-13.377h-7.4c-.105,1.415.277,3.087-.386,3.862-1.634,1.909-.109,4.151-.979,5.826-1.092,2.1-1.035,4.188-1.019,6.344C1416.264,2889.594,1416.547,2889.664,1419.619,2888.1Z" transform="translate(3.599 0)" fill="#fff"/>
    <path id="Контур_101" data-name="Контур 101" d="M1414.752,2892.242c-3.177,2.638-4.262,5.471-4.005,8.838.22,2.894,1.269,4.908,4.207,6.119,4.725,1.946,11.254.066,12.63-4.375.555-1.793-.167-3.983-.322-5.99-.03-.4-.127-.8-.192-1.2.586.246,1.459.325,1.713.763a7.935,7.935,0,0,1-1.068,9.849,15.359,15.359,0,0,1-4.259,3.287c-6.424,3.424-14.925-2.541-14.952-8.748,0-.94-.036-1.882.006-2.819C1408.672,2894.445,1409.667,2893.429,1414.752,2892.242Z" transform="translate(2.293 6.113)" fill="#fff"/>
  </g>
</svg>
