<svg xmlns="http://www.w3.org/2000/svg" width="104.037" height="64.732" viewBox="0 0 104.037 64.732">
  <path id="Контур_97" data-name="Контур 97" d="M1222.466,2685.674c2.87-1.161,5.546-2.319,8.288-3.281.5-.177,1.28.443,1.93.7-.366.536-.612,1.3-1.119,1.569-2.416,1.27-4.91,2.388-7.361,3.592-1.261.62-2.232,2.014-3.9.222-.758-.812-2.5-.443-3.541.866a37.538,37.538,0,0,1-3.1,3.149,8.834,8.834,0,0,0,.431,1.388c2.062,3.764,2.157,4.223.849,6.335-1.239,2-2.542,3.872-5.413,3.431-1.631-.251-2.42.93-2.838,2.289-.435,1.419-1.294,2.762-2.747,2.334-3.528-1.038-4.395,1.9-6.137,3.608-1.6,1.57-2.986,3.952-5.758,1.493-.319-.282-1.812.227-2.327.776-4.293,4.577-4.233,4.554-9.843,1.332a2.975,2.975,0,0,0-4.137.531c-2.26,2.2-5.383,2.034-7.059-.364-1.272-1.821-2.791-2.418-4.545-3.249-1.376-.65-3.408-.811-3.647-3.07-.041-.381-1.065-.689-1.665-.97a8.663,8.663,0,0,1-2-.844c-1.986-1.713-3.45-3.868-6.527-4.347a4.034,4.034,0,0,1-2.779-4.584c.468-3.206-1.69-5.6-3.16-8.1a4.676,4.676,0,0,0-4.332-2.348c-4.195-.034-7.552-2.613-10.932-4.822-.342-.223-.31-1.022-.451-1.553.669-.124,1.456-.535,1.985-.317,1.68.69,3.245,1.658,4.893,2.438,2.844,1.347,3.6,1.2,4.915-1.44,1.7-3.418,3.153-6.955,4.766-10.417,1.537-3.3,3-6.645,4.773-9.821,1.068-1.919.754-2.808-1.238-3.543a38.031,38.031,0,0,1-4.923-2.356,18.978,18.978,0,0,1-2.365-1.823c1.23.118.825-2.461,2.809-1.013,2.327,1.7,5.149,2.708,7.736,4.053a8.1,8.1,0,0,1,2.322,1.481c2.3,2.527,2.642,2.9,5.2,1.224,5.4-3.532,11.337-2.645,17.189-2.691a2.245,2.245,0,0,1,1.521.542c2.77,2.979,5.984.78,8.8.458,4.4-.5,9.262.222,12.567,3.122,2.613,2.292,2.852,2.321,5.858.576.435-.252,1.193-.629,1.167-.882a3.456,3.456,0,0,1,2-3.81c2.8-1.292,5.682-2.43,8.57-3.528.3-.114,1.148.4,1.24.753a1.633,1.633,0,0,1-.5,1.474c-1.967.935-4.133,1.509-5.978,2.626-1.12.678-2.251,1.448-1.024,3.68C1215.039,2670.033,1218.606,2677.829,1222.466,2685.674ZM1192,2693.461c1.516.146,1.068-2.333,3.094-.984,4.421,2.941,9.17,5.388,13.794,8.021.518.294,3.467-.565,3.685-1.014.411-.849-.2-3.739-.918-4.141-5.112-2.875-10.2-5.782-15.356-8.583-5.431-2.953-11.234-5.3-15.232-10.408-.566-.723-2.475-1.378-2.963-1.009-2.5,1.9-5.254.981-7.863,1.03-5.3.1-6.846-1.215-8.8-6.754-1.324-3.765-.666-5.041,3.047-4.968,4.227.084,7.9-2.219,12.017-2.48.233-.014.508-.937.562-1.458.026-.256-.433-.823-.633-.8-4.171.386-8.591-1.233-12.49,1.183a13.618,13.618,0,0,1-9.093,2.34c-1.958-.238-3.149.454-3.823,2.568a66.3,66.3,0,0,1-3.485,8c-1.323,2.8-2.613,5.64-4.181,8.307-.987,1.678-.661,2.764.524,4.089,1.507,1.685,2.78,3.576,4.218,5.326.916,1.115,1.735,1.881,3.349.5.8-.687,3.283-.841,3.747-.25,1.905,2.432,4.35,2.324,6.865,2.157,4.192-.276,4.761,5.426,8.989,5.341.817-.016,2.232,1.841,2.378,2.963a2.816,2.816,0,0,0,2.1,2.694c2.116.939,4.276,2.455,3.887,5.265-.3,2.21,1.093,3.244,2.375,4.349a2.814,2.814,0,0,0,4.723-1.781c.191-1.556.754-3.458-2.017-3.873-1-.15-1.793-1.656-3.572-3.436,2.312.447,3.453.448,4.374.9,1.322.647,2.44,1.7,3.723,2.441,1.778,1.026,3.6,2.219,5.774,1.658a3.416,3.416,0,0,0,2.172-1.639c.227-.6-.412-1.689-.928-2.362a6.005,6.005,0,0,0-2.176-1.82c-2.345-1.058-4.017-3.328-6.755-3.706-.244-.033-.6-1.037-.47-1.466a1.506,1.506,0,0,1,1.284-.723,8.351,8.351,0,0,1,2.555.927c2.738,1.487,5.673,2.751,8.077,4.671a5.391,5.391,0,0,0,5.712,1.03c-.112-4.549-.158-4.468-3.993-6.71C1197.579,2697.275,1195.021,2695.441,1192,2693.461Zm19.117-1.746c1.694-1.767,3.245-4.518,5.546-5.485,2.633-1.105,1.985-2.335,1.289-3.8-2.5-5.254-5.1-10.462-7.754-15.641-1.219-2.383-2.036-2.762-4.53-1.717-2.976,1.247-5.324,1.053-7.7-1.406-3.836-3.974-9.119-3.558-13.414-2.086-6.749,2.311-13.171,5.525-21.241,5.6a21.852,21.852,0,0,0,2.111,3.97c.981,1.126,2.258,2.674,3.49,2.752,2.39.152,4.818.574,7.344-.6,3.109-1.441,8-.086,8.959,2.652a7.846,7.846,0,0,0,5.649,4.979c2.625.745,5.808.311,8.545-.4a9.825,9.825,0,0,1,5.088-.173,15.821,15.821,0,0,1-2.664,2.578,16.178,16.178,0,0,1-3.525,1.086,12.9,12.9,0,0,0,2.315,2.26C1203.993,2688.12,1207.426,2689.817,1211.121,2691.715Zm-39.589,11.987c-.736-.832-1.323-2.068-2.2-2.335a3.653,3.653,0,0,0-3.035.784,15.218,15.218,0,0,0-3.246,4.422,2.938,2.938,0,0,0,1.019,3.562c1.273,1.048,1.99.449,2.846-.443,1.2-1.256,2.512-2.417,3.656-3.723A8.816,8.816,0,0,0,1171.532,2703.7Zm-12.616,2.342c2.864-.364,6.053-6.263,4.764-8.1a3.064,3.064,0,0,0-2.269-1.33c-1.822.3-4.956,5.6-4.329,7.239A8.085,8.085,0,0,0,1158.916,2706.044Zm17.476,4.466-2.03-3.152c-.7,1.252-2.963.185-3.2,2.281-.141,1.232-.959,2.391-1.069,3.62-.095,1.056,2.352,2.722,2.847,2.14C1174.119,2714.007,1176.4,2713.271,1176.392,2710.51Zm-23.992-9.274c1.758.03,3.256-2.4,3.476-4.115.194-1.512-.866-2.232-1.753-2.74-.465-.267-1.6.49-2.35.921a2.555,2.555,0,0,0-1.213,1.236c-.277,1.018-.679,2.3-.289,3.121C1150.673,2700.5,1151.954,2700.932,1152.4,2701.236Z" transform="translate(-1128.647 -2653.019)" fill="#fff"/>
</svg>
